<svg width="80" height="80" viewBox="0 0 80 80" fill="none" xmlns="http://www.w3.org/2000/svg">
<rect width="80" height="80" rx="40" fill="#D8D8D8"/>
<mask id="mask0_0_577" style="mask-type:luminance" maskUnits="userSpaceOnUse" x="0" y="0" width="80" height="80">
<rect width="80" height="80" rx="40" fill="white"/>
</mask>
<g mask="url(#mask0_0_577)">
<rect x="-6" y="-10" width="96" height="96" fill="url(#paint0_linear_0_577)"/>
<mask id="mask1_0_577" style="mask-type:luminance" maskUnits="userSpaceOnUse" x="22" y="23" width="40" height="34">
<path fill-rule="evenodd" clip-rule="evenodd" d="M45.7832 23.4707H38.1386C37.3568 23.4707 36.7229 24.1045 36.7229 24.8864V55.0731C36.7229 55.8549 37.3568 56.4888 38.1386 56.4888H45.7832C46.5651 56.4888 47.1989 55.8549 47.1989 55.0731V24.8864C47.1989 24.1044 46.5651 23.4707 45.7832 23.4707ZM60.5534 41.0722H52.9088C52.1269 41.0722 51.4931 41.706 51.4931 42.4878V55.0826C51.4931 55.8644 52.1269 56.4983 52.9088 56.4983H60.5534C61.3352 56.4983 61.969 55.8644 61.969 55.0826V42.4878C61.969 41.7059 61.3352 41.0722 60.5534 41.0722ZM23.4157 34.7489H31.0603C31.8421 34.7489 32.4759 35.3827 32.4759 36.1645V55.0637C32.4759 55.8455 31.8421 56.4794 31.0603 56.4794H23.4157C22.6338 56.4794 22 55.8455 22 55.0637V36.1645C22 35.3827 22.6338 34.7489 23.4157 34.7489Z" fill="white"/>
</mask>
<g mask="url(#mask1_0_577)">
<rect x="22" y="20" width="40" height="40" fill="white"/>
</g>
</g>
<defs>
<linearGradient id="paint0_linear_0_577" x1="90" y1="86" x2="90" y2="-10" gradientUnits="userSpaceOnUse">
<stop stop-color="#6F86D6"/>
<stop offset="1" stop-color="#48C6EF"/>
</linearGradient>
</defs>
</svg>
